<?xml version="1.0" encoding="utf-8"?>
<!-- Generator: Adobe Illustrator 17.1.0, SVG Export Plug-In . SVG Version: 6.00 Build 0)  -->
<!DOCTYPE svg PUBLIC "-//W3C//DTD SVG 1.1//EN" "http://www.w3.org/Graphics/SVG/1.1/DTD/svg11.dtd">
<svg version="1.1" id="Layer_1" xmlns="http://www.w3.org/2000/svg" xmlns:xlink="http://www.w3.org/1999/xlink" x="0px" y="0px"
	 viewBox="0 0 800 800" enable-background="new 0 0 800 800" xml:space="preserve">
<g>
	<g>
		<path fill="#3F8E48" d="M283.8,352.6h-26.3c-1.1,0-2,0.9-2,2v89.8c0,1.1,0.9,2,2,2h3.4c1.1,0,2-0.9,2-2v-44.8h16.5
			c1.1,0,2-0.9,2-2v-3.2c0-1.1-0.9-2-2-2h-16.5v-32.7h20.9c1.1,0,2-0.9,2-2v-3.2C285.8,353.5,284.9,352.6,283.8,352.6z"/>
		<path fill="#3F8E48" d="M334,351.1c-11,0-19.9,9.2-19.9,20.5v56.3c0,11.3,8.9,20.5,19.9,20.5c11,0,19.9-9.2,19.9-20.5v-56.3
			C353.9,360.3,345,351.1,334,351.1z M334,441.1c-7.1,0-12.5-5.6-12.5-13.1v-56.3c0-7.5,5.5-13.3,12.5-13.3c7,0,12.5,5.9,12.5,13.3
			v56.3C346.5,435.4,341.2,441.1,334,441.1z"/>
		<path fill="#3F8E48" d="M417.5,439.4h-21.1v-84.6c0-1.1-0.9-2-2-2H391c-1.1,0-2,0.9-2,2v90c0,1.1,0.9,2,2,2h26.5c1.1,0,2-0.9,2-2
			v-3.4C419.5,440.3,418.6,439.4,417.5,439.4z"/>
		<path fill="#3F8E48" d="M456.2,352.8h-3.4c-1.1,0-2,0.9-2,2v90c0,1.1,0.9,2,2,2h3.4c1.1,0,2-0.9,2-2v-90
			C458.2,353.7,457.3,352.8,456.2,352.8z"/>
		<path fill="#3F8E48" d="M514.9,354.4c-0.2-1-1-1.7-2-1.7h-5.3c-1,0-1.8,0.7-2,1.6l-16.6,90c-0.1,0.6,0,1.2,0.4,1.6
			c0.4,0.5,0.9,0.7,1.5,0.7h3.2c0.9,0,1.8-0.7,2-1.6l4.8-22.4h18.2l4.6,22.4c0.2,0.9,1,1.6,2,1.6h3.2c0,0,0,0,0,0c1.1,0,2-0.9,2-2
			c0-0.2,0-0.4-0.1-0.6L514.9,354.4z M502.2,415.6l8-45.9l7.8,45.9H502.2z"/>
		<path fill="#3F8E48" d="M581.3,351.1c-12.1,0-20.5,8.7-20.5,21.1v54.9c0,12,9,21.3,20.5,21.3c11.6,0,20.1-8.8,20.1-20.9v-34.8
			c0-1.1-0.9-2-2-2h-12.2c-1.1,0-2,0.9-2,2v3.2c0,1.1,0.9,2,2,2h6.8v29.7c0,8.4-4.9,13.6-12.7,13.6c-7.9,0-13.1-5.6-13.1-14v-54.9
			c0-8.2,5.4-14,13.1-14c8,0,12.7,5.1,12.7,13.8v6.8c0,1.1,0.9,2,2,2h3.4c1.1,0,2-0.9,2-2V372C601.3,359.7,593.1,351.1,581.3,351.1z
			"/>
		<path fill="#3F8E48" d="M664.9,359.9c1.1,0,2-0.9,2-2v-3.2c0-1.1-0.9-2-2-2h-28c-1.1,0-2,0.9-2,2v90c0,1.1,0.9,2,2,2h28
			c1.1,0,2-0.9,2-2v-3.2c0-1.1-0.9-2-2-2h-22.6v-47.9h15.9c1.1,0,2-0.9,2-2v-3.2c0-1.1-0.9-2-2-2h-15.9v-24.7H664.9z"/>
	</g>
	<g>
		<g>
			<g>
				<path fill="#3F8E48" d="M162.5,354.8l16.8,16.8c3.3,3.3,5.7,7.2,7,11.3c0.4,1.1,0.7,2.2,0.9,3.2c2,9.4-0.6,19.6-7.9,26.9
					l-16.8,16.8l-16.8-16.8c-11.5-11.5-11.5-30,0-41.5L162.5,354.8z"/>
			</g>
			<g>
				<path fill="#2DEF5B" d="M215.4,376.9v23.8c0,4.7-1.1,9.1-3,13c-0.5,1-1.1,2-1.7,2.9c-5.2,8.1-14.3,13.4-24.6,13.4h-23.8v-23.8
					c0-16.2,13.1-29.3,29.3-29.3H215.4z"/>
			</g>
			<g>
				<polygon fill="#3F8E48" points="215.4,376.9 215.4,379 198,396.4 194.9,399.5 180.9,413.5 164.4,430 162.2,430 162.2,427.8 
					213.2,376.9 				"/>
			</g>
			<g>
				<path fill="#3F8E48" d="M212.3,413.6c-0.5,1-1.1,2-1.7,2.9h-33.2c-0.8,0-1.5-0.7-1.5-1.5c0-0.8,0.7-1.5,1.5-1.5h34.2
					C211.9,413.5,212.1,413.5,212.3,413.6z"/>
			</g>
			<g>
				<path fill="#3F8E48" d="M215.4,396.8c-0.3-0.2-0.6-0.4-1-0.4H198H195c-0.9,0-1.5,0.7-1.5,1.5c0,0.8,0.6,1.5,1.4,1.5
					c0.1,0,0.1,0,0.2,0h19.3c0.4,0,0.8-0.2,1-0.4V396.8z"/>
			</g>
		</g>
	</g>
</g>
</svg>
