<?xml version="1.0" encoding="utf-8"?>
<!-- Generator: Adobe Illustrator 16.0.4, SVG Export Plug-In . SVG Version: 6.00 Build 0)  -->
<!DOCTYPE svg PUBLIC "-//W3C//DTD SVG 1.1//EN" "http://www.w3.org/Graphics/SVG/1.1/DTD/svg11.dtd">
<svg version="1.1" id="Layer_1" xmlns="http://www.w3.org/2000/svg" xmlns:xlink="http://www.w3.org/1999/xlink" x="0px" y="0px"
	 width="442px" height="108.588px" viewBox="0 0 442 108.588" enable-background="new 0 0 442 108.588" xml:space="preserve">
<g>
	<g>
		<path fill="#3F8E48" d="M130.587,18.224h-20.12c-0.841,0-1.53,0.688-1.53,1.529V88.45c0,0.842,0.688,1.53,1.53,1.53h2.601
			c0.842,0,1.53-0.688,1.53-1.53V54.179h12.623c0.841,0,1.53-0.688,1.53-1.53V50.2c0-0.841-0.688-1.529-1.53-1.529h-12.623V23.654
			h15.988c0.841,0,1.53-0.688,1.53-1.53v-2.447C132.117,18.913,131.428,18.224,130.587,18.224z"/>
		<path fill="#3F8E48" d="M168.99,17.075c-8.414,0-15.223,7.038-15.223,15.684v43.069c0,8.646,6.809,15.684,15.223,15.684
			c8.415,0,15.225-7.038,15.225-15.684V32.759C184.212,24.113,177.405,17.075,168.99,17.075z M168.99,85.926
			c-5.431,0-9.562-4.284-9.562-10.021V32.835c0-5.738,4.208-10.175,9.562-10.175c5.355,0,9.562,4.515,9.562,10.175v43.069
			C178.552,81.565,174.498,85.926,168.99,85.926z"/>
		<path fill="#3F8E48" d="M232.867,84.625h-16.141V19.906c0-0.841-0.688-1.53-1.53-1.53h-2.601c-0.842,0-1.53,0.688-1.53,1.53
			v68.851c0,0.842,0.688,1.529,1.53,1.529h20.272c0.84,0,1.529-0.688,1.529-1.529v-2.602
			C234.398,85.313,233.709,84.625,232.867,84.625z"/>
		<path fill="#3F8E48" d="M262.473,18.376h-2.602c-0.842,0-1.529,0.688-1.529,1.53v68.851c0,0.842,0.688,1.529,1.529,1.529h2.602
			c0.842,0,1.531-0.688,1.531-1.529V19.906C264.004,19.065,263.314,18.376,262.473,18.376z"/>
		<path fill="#3F8E48" d="M307.379,19.601c-0.154-0.766-0.766-1.301-1.531-1.301h-4.053c-0.768,0-1.377,0.535-1.531,1.224
			l-12.699,68.85c-0.076,0.459,0,0.918,0.307,1.225c0.307,0.383,0.688,0.536,1.146,0.536h2.449c0.688,0,1.377-0.536,1.529-1.226
			l3.672-17.136h13.924l3.52,17.136c0.152,0.688,0.766,1.226,1.529,1.226h2.447l0,0c0.842,0,1.529-0.688,1.529-1.53
			c0-0.153,0-0.307-0.074-0.459L307.379,19.601z M297.662,66.418l6.121-35.112l5.967,35.112H297.662z"/>
		<path fill="#3F8E48" d="M358.174,17.075c-9.256,0-15.684,6.656-15.684,16.143v41.999c0,9.18,6.887,16.295,15.684,16.295
			c8.875,0,15.377-6.732,15.377-15.989V48.9c0-0.841-0.688-1.53-1.529-1.53h-9.334c-0.842,0-1.529,0.688-1.529,1.53v2.448
			c0,0.842,0.688,1.529,1.529,1.529h5.203V75.6c0,6.426-3.75,10.402-9.717,10.402c-6.043,0-10.021-4.282-10.021-10.71V33.294
			c0-6.272,4.131-10.709,10.021-10.709c6.121,0,9.717,3.9,9.717,10.557v5.201c0,0.843,0.688,1.531,1.529,1.531h2.602
			c0.842,0,1.529-0.688,1.529-1.531v-5.277C373.475,23.654,367.201,17.075,358.174,17.075z"/>
		<path fill="#3F8E48" d="M422.129,23.808c0.842,0,1.529-0.688,1.529-1.53v-2.448c0-0.842-0.688-1.529-1.529-1.529h-21.422
			c-0.842,0-1.529,0.688-1.529,1.529V88.68c0,0.842,0.688,1.529,1.529,1.529h21.422c0.842,0,1.529-0.688,1.529-1.529v-2.448
			c0-0.841-0.688-1.529-1.529-1.529H404.84V48.059h12.164c0.84,0,1.527-0.689,1.527-1.53v-2.447c0-0.843-0.688-1.531-1.527-1.531
			H404.84V23.654h17.289V23.808z"/>
	</g>
	<g>
		<g>
			<g>
				<path fill="#3F8E48" d="M37.792,19.906l12.852,12.853c2.524,2.523,4.36,5.508,5.355,8.645c0.306,0.841,0.536,1.684,0.688,2.448
					c1.53,7.19-0.459,14.994-6.043,20.579L37.792,77.282L24.94,64.431c-8.797-8.798-8.797-22.95,0-31.748L37.792,19.906z"/>
			</g>
			<g>
				<path fill="#2DEF5B" d="M78.261,36.813v18.207c0,3.596-0.841,6.962-2.295,9.945c-0.382,0.765-0.841,1.529-1.3,2.219
					c-3.978,6.196-10.939,10.251-18.819,10.251H37.64V59.229c0-12.394,10.021-22.415,22.415-22.415H78.261z"/>
			</g>
			<g>
				<polygon fill="#3F8E48" points="78.261,36.813 78.261,38.419 64.95,51.73 62.579,54.103 51.869,64.812 39.246,77.435 
					37.563,77.435 37.563,75.751 76.578,36.813 				"/>
			</g>
			<g>
				<path fill="#3F8E48" d="M75.89,64.889c-0.383,0.765-0.842,1.528-1.301,2.218H49.191c-0.612,0-1.147-0.535-1.147-1.147
					c0-0.61,0.536-1.146,1.147-1.146h26.163C75.584,64.812,75.736,64.812,75.89,64.889z"/>
			</g>
			<g>
				<path fill="#3F8E48" d="M78.261,52.036c-0.229-0.152-0.459-0.306-0.765-0.306H64.95h-2.295c-0.688,0-1.147,0.535-1.147,1.147
					c0,0.611,0.459,1.146,1.071,1.146c0.076,0,0.076,0,0.153,0h14.765c0.306,0,0.612-0.152,0.765-0.307L78.261,52.036L78.261,52.036
					z"/>
			</g>
		</g>
	</g>
</g>
</svg>
