<?xml version="1.0" encoding="utf-8"?>
<!-- Generator: Adobe Illustrator 16.0.4, SVG Export Plug-In . SVG Version: 6.00 Build 0)  -->
<!DOCTYPE svg PUBLIC "-//W3C//DTD SVG 1.1//EN" "http://www.w3.org/Graphics/SVG/1.1/DTD/svg11.dtd">
<svg version="1.1" id="Layer_1" xmlns="http://www.w3.org/2000/svg" xmlns:xlink="http://www.w3.org/1999/xlink" x="0px" y="0px"
	 width="442px" height="108.588px" viewBox="90.5 342.5 442 108.588" enable-background="new 90.5 342.5 442 108.588"
	 xml:space="preserve">
<g>
	<g>
		<path fill="#3F8E48" d="M217.107,359.739h-20.12c-0.841,0-1.53,0.688-1.53,1.53v68.697c0,0.842,0.688,1.53,1.53,1.53h2.601
			c0.842,0,1.53-0.688,1.53-1.53v-34.272h12.623c0.841,0,1.53-0.688,1.53-1.53v-2.448c0-0.841-0.688-1.53-1.53-1.53h-12.623V365.17
			h15.988c0.841,0,1.53-0.688,1.53-1.53v-2.448C218.637,360.428,217.948,359.739,217.107,359.739z"/>
		<path fill="#3F8E48" d="M255.51,358.591c-8.415,0-15.223,7.038-15.223,15.683v43.07c0,8.645,6.809,15.683,15.223,15.683
			c8.415,0,15.224-7.038,15.224-15.683v-43.07C270.733,365.629,263.925,358.591,255.51,358.591z M255.51,427.441
			c-5.431,0-9.562-4.284-9.562-10.021v-43.069c0-5.738,4.208-10.175,9.562-10.175c5.355,0,9.562,4.514,9.562,10.175v43.069
			C265.072,423.081,261.018,427.441,255.51,427.441z"/>
		<path fill="#3F8E48" d="M319.388,426.141h-16.142v-64.719c0-0.841-0.688-1.53-1.53-1.53h-2.601c-0.842,0-1.53,0.688-1.53,1.53
			v68.85c0,0.842,0.688,1.53,1.53,1.53h20.272c0.841,0,1.53-0.688,1.53-1.53v-2.601
			C320.918,426.829,320.229,426.141,319.388,426.141z"/>
		<path fill="#3F8E48" d="M348.993,359.892h-2.602c-0.841,0-1.529,0.688-1.529,1.53v68.85c0,0.842,0.688,1.53,1.529,1.53h2.602
			c0.842,0,1.53-0.688,1.53-1.53v-68.85C350.523,360.581,349.834,359.892,348.993,359.892z"/>
		<path fill="#3F8E48" d="M393.898,361.116c-0.153-0.765-0.765-1.301-1.53-1.301h-4.054c-0.766,0-1.377,0.536-1.53,1.224
			l-12.699,68.85c-0.076,0.459,0,0.918,0.306,1.224c0.307,0.383,0.688,0.536,1.147,0.536h2.448c0.688,0,1.377-0.536,1.53-1.225
			l3.672-17.136h13.923l3.52,17.136c0.152,0.688,0.765,1.225,1.529,1.225h2.448l0,0c0.842,0,1.53-0.688,1.53-1.53
			c0-0.153,0-0.307-0.076-0.459L393.898,361.116z M384.183,407.934l6.12-35.113l5.967,35.113H384.183z"/>
		<path fill="#3F8E48" d="M444.694,358.591c-9.257,0-15.683,6.656-15.683,16.142v41.999c0,9.18,6.885,16.295,15.683,16.295
			c8.874,0,15.377-6.732,15.377-15.989v-26.622c0-0.841-0.688-1.53-1.53-1.53h-9.333c-0.842,0-1.53,0.688-1.53,1.53v2.448
			c0,0.842,0.688,1.53,1.53,1.53h5.202v22.721c0,6.426-3.749,10.403-9.716,10.403c-6.043,0-10.021-4.283-10.021-10.71V374.81
			c0-6.273,4.131-10.71,10.021-10.71c6.12,0,9.716,3.901,9.716,10.557v5.202c0,0.842,0.688,1.53,1.529,1.53h2.602
			c0.842,0,1.53-0.688,1.53-1.53v-5.278C459.994,365.17,453.722,358.591,444.694,358.591z"/>
		<path fill="#3F8E48" d="M508.648,365.323c0.842,0,1.53-0.688,1.53-1.53v-2.448c0-0.842-0.688-1.53-1.53-1.53h-21.42
			c-0.842,0-1.53,0.688-1.53,1.53v68.85c0,0.842,0.688,1.53,1.53,1.53h21.42c0.842,0,1.53-0.688,1.53-1.53v-2.448
			c0-0.841-0.688-1.529-1.53-1.529h-17.289v-36.644h12.164c0.841,0,1.529-0.689,1.529-1.53v-2.448c0-0.842-0.688-1.53-1.529-1.53
			h-12.164V365.17h17.289V365.323z"/>
	</g>
	<g>
		<g>
			<g>
				<path fill="#3F8E48" d="M124.312,361.422l12.852,12.852c2.524,2.524,4.36,5.508,5.355,8.645
					c0.306,0.841,0.536,1.683,0.688,2.448c1.53,7.191-0.459,14.994-6.043,20.579l-12.852,12.852l-12.852-12.852
					c-8.797-8.798-8.797-22.95,0-31.748L124.312,361.422z"/>
			</g>
			<g>
				<path fill="#2DEF5B" d="M164.781,378.329v18.207c0,3.596-0.841,6.962-2.295,9.945c-0.382,0.765-0.841,1.53-1.3,2.219
					c-3.978,6.196-10.939,10.251-18.819,10.251H124.16v-18.207c0-12.393,10.021-22.415,22.415-22.415H164.781z"/>
			</g>
			<g>
				<polygon fill="#3F8E48" points="164.781,378.329 164.781,379.935 151.47,393.246 149.099,395.618 138.389,406.327 
					125.766,418.95 124.083,418.95 124.083,417.267 163.098,378.329 				"/>
			</g>
			<g>
				<path fill="#3F8E48" d="M162.41,406.404c-0.383,0.765-0.842,1.529-1.301,2.218h-25.398c-0.612,0-1.147-0.535-1.147-1.147
					c0-0.611,0.536-1.147,1.147-1.147h26.163C162.104,406.327,162.256,406.327,162.41,406.404z"/>
			</g>
			<g>
				<path fill="#3F8E48" d="M164.781,393.552c-0.229-0.153-0.459-0.306-0.765-0.306H151.47h-2.295c-0.688,0-1.147,0.535-1.147,1.147
					c0,0.612,0.459,1.147,1.071,1.147c0.076,0,0.076,0,0.153,0h14.765c0.306,0,0.612-0.153,0.765-0.306V393.552z"/>
			</g>
		</g>
	</g>
</g>
</svg>
